PathFileType	4	(X/Y/Z)	T00_Trial_0-100.trc
DataRate	CameraRate	NumFrames	NumMarkers	Units	OrigDataRate	OrigDataStartFrame	OrigNumFrames
60	60	6	22	m	60	25	100
Frame#	Time	Hip			RHip			RKnee			RAnkle			RBigToe			RSmallToe			RHeel			LHip			LKnee			LAnkle			LBigToe			LSmallToe			LHeel			Neck			Head			Nose			RShoulder			RElbow			RWrist			LShoulder			LElbow			LWrist		
		X1	Y1	Z1	X2	Y2	Z2	X3	Y3	Z3	X4	Y4	Z4	X5	Y5	Z5	X6	Y6	Z6	X7	Y7	Z7	X8	Y8	Z8	X9	Y9	Z9	X10	Y10	Z10	X11	Y11	Z11	X12	Y12	Z12	X13	Y13	Z13	X14	Y14	Z14	X15	Y15	Z15	X16	Y16	Z16	X17	Y17	Z17	X18	Y18	Z18	X19	Y19	Z19	X20	Y20	Z20	X21	Y21	Z21	X22	Y22	Z22
25	0.4166666666666667	-0.06879331368529608	0.9214468412288305	-1.1853323784462209	-0.16305503878612151	0.951793375053497	-1.2134044124464898	-0.3704502122992858	0.5913567496846901	-1.0949861128232479	-0.27349320518524756	0.20275612048585254	-1.3050760277003417	-0.3675803755387569	0.12698848249764538	-1.1517460463217113	-0.3949010051122289	0.1536002943355112	-1.2250281919823385	-0.24933602711086705	0.13709795870878272	-1.360601695347148	0.02010458345963461	0.8928005979192843	-1.1447842155435497	-0.06281695077296694	0.4995122980480034	-1.0228618200557014	-0.02013375003903625	0.1569459173181349	-1.1497906444647044	-0.0396314061198603	0.08750994757852618	-0.9791911726135487	0.0040671050756728834	0.07433448185436456	-1.0094298437707796	-0.001684014491830341	0.10740377457669945	-1.1927837728810449	0.1746298080545164	1.411481865679333	-1.159937624660193	0.25920533977589083	1.6242309827956756	-0.9831229904395874	0.17894963852155835	1.4757027338937767	-0.9841917424775082	-0.0030210581525868477	1.4330493188108009	-1.2691262992269636	-0.24404219697991245	1.3826741762807384	-1.2857067923483465	-0.3515984733492528	1.4546629521135102	-1.0740641572753673	0.3029609785607425	1.2654561017936272	-1.1731344588049402	0.3359538178443123	0.9804100881442741	-1.1582932387476592	0.33126458124954045	0.72701863318416	-1.0996570470577214
26	0.43333333333333335	-0.06552055315497426	0.9228199445267085	-1.175241843978452	-0.16369435526643353	0.9514023385347272	-1.205970648059237	-0.38412040202651326	0.6018654546686547	-1.075716427125033	-0.30646179550618813	0.2029159615963486	-1.2855438839234832	-0.40435374907272825	0.13037007536852904	-1.1200143135194602	-0.43670617537710194	0.15533745233961208	-1.196506619873718	-0.28433335127656234	0.16404293033346318	-1.3276363014851587	0.016160255612445565	0.8916396584465114	-1.141370187244547	-0.059879610748623024	0.49720499342665175	-1.0172610814409542	-0.015739794650079374	0.15526250646964013	-1.1537940159456006	-0.05073998109644884	0.0859102900773358	-0.977199147914707	0.005947107208818234	0.07825438366711057	-1.0112802260254377	-0.0028119495407046163	0.10684365122976947	-1.19513908939082	0.18004544274069895	1.4076251594867402	-1.1541235843769282	0.2725929608715047	1.619122810977455	-0.9677773113733378	0.19519811761833433	1.4688948500347063	-0.9873697997329116	-0.0006284374503402034	1.4315367133334462	-1.2611660703252294	-0.2395060175039882	1.3917650692347008	-1.27490408054967	-0.3456954940301705	1.4682296659601295	-1.063890409146871	0.30626140487799247	1.2569856196428695	-1.164372165228302	0.3377869174744603	0.9739302827123579	-1.1515825834638989	0.32763473466525944	0.7221858627920443	-1.0863928457764396
27	0.45	-0.07338713631157676	0.920862980594621	-1.1633040518078699	-0.1633832977433948	0.9489348935876024	-1.1937647859393274	-0.399880337283682	0.6055135022802547	-1.0643472350299437	-0.34350309023264614	0.20924857750758188	-1.2624212486004827	-0.44381300151686165	0.1360212920183593	-1.0968858545653204	-0.4702009782245488	0.15493084407956598	-1.178368257859333	-0.32010933415785064	0.16536974071054833	-1.3077707772652671	0.013951636889620587	0.8830428111270442	-1.1322843654484511	-0.058333955118796375	0.49307273293860915	-1.0151232383870845	-0.014924674430571976	0.15358839330332488	-1.1523369324728892	-0.0491335261504608	0.08628649371664567	-0.9730184388347942	0.024339846360735804	0.07503643693297778	-1.026962958078586	-0.0009035708009983718	0.10882005770755347	-1.1997239912594282	0.18827162812856513	1.3989840391916746	-1.1441522418390107	0.2860153776076319	1.6077504498207786	-0.9597640629427228	0.20966055039683323	1.4590539380014795	-0.9636457812427314	0.003791356486313607	1.427773711186754	-1.2531038063476851	-0.24310072468911648	1.3947581381449443	-1.2803361963948787	-0.3353133977627078	1.4830388315410112	-1.0486569927508782	0.3113756584741082	1.2479264146061724	-1.1567292017730917	0.3377194736523128	0.9711185549522411	-1.1442263793139484	0.3277459996460046	0.7163223914230491	-1.0757568247603821
28	0.4666666666666667	-0.07324635230661775	0.9202253033553714	-1.1580371220118661	-0.1963260230959315	0.9564536076035424	-1.1309963103650764	-0.4160883147385856	0.6169931460398455	-1.0535968450880913	-0.37866075358061974	0.21186542948833026	-1.2408006944175898	-0.4810155581931262	0.1405984272520681	-1.0805622475761383	-0.5077305412558534	0.1614607706646688	-1.1586968278076015	-0.35138826661025024	0.16916870725295632	-1.2798594461972774	0.007271817446713241	0.8694919277480279	-1.1550176850595102	-0.05991319416620891	0.4898445018275674	-1.0061928709333667	-0.01365851977995495	0.15197329588143493	-1.1573913006147776	-0.042499599483679235	0.08905232393330403	-0.9824334650391593	0.010779306821813174	0.0780933490338855	-1.0211035267455548	-0.003363969865411318	0.1101600783527657	-1.203072959031059	0.19250374771574508	1.3925474372728688	-1.1351665384440994	0.2910633514519942	1.602332598946697	-0.9587397301052166	0.20852404945859757	1.4551534449057848	-0.9592524433368796	0.011766762671579684	1.42622927796683	-1.239327863100148	-0.23028759724221468	1.3980204483133676	-1.2673428767338546	-0.32217998848919704	1.4907718514976724	-1.048830594308871	0.3165035299733976	1.2427389705911087	-1.1484183803886292	0.33807620159467294	0.9586306658311203	-1.1322351478611625	0.3232504317926823	0.7110447940606518	-1.060506711509512
29	0.48333333333333334	-0.07917494696991774	0.9221852881772185	-1.1437357485745676	-0.17275571164294692	0.9552057299482899	-1.1757654613704875	-0.4249045984586321	0.6227871291246649	-1.04537341815624	-0.4566538888886753	0.2593104089094798	-1.1996501050701571	-0.5027519386597484	0.1274909988227861	-1.054486776390225	-0.5234613307102999	0.14524519382745207	-1.1381842053540583	-0.39533624776030385	0.1764928053895301	-1.269021285353392	0.0032444724737813882	0.8667234550016892	-1.144506941900862	-0.06202669825832154	0.49058159394473455	-0.9971451515169292	-0.017091811269674146	0.14778024299606024	-1.1491711833349127	-0.039795739267235807	0.08537386856941437	-0.9839024492944051	0.014599815269670663	0.07666739305148598	-1.022848605988282	-0.007823911242937468	0.10342393888339803	-1.194577122052458	0.19931757578694195	1.3885946575730825	-1.1273713587872176	0.3034081164090709	1.599017202610121	-0.9566108240840616	0.22370774333810983	1.4470556768753817	-0.9563497289646964	0.01576421771447586	1.42470400434415	-1.2268632792602252	-0.22413843433548114	1.397168923678112	-1.2491262986868632	-0.3153821626979148	1.5046551128439947	-1.0493998538481017	0.3184918215677597	1.2325375505426597	-1.1384808132747846	0.342139350665826	0.9535106019034608	-1.1275995955813272	0.3221970920575935	0.703330848672962	-1.0539226578094436
30	0.5	-0.08363331810221733	0.9213079700787393	-1.128264758564123	-0.17915889846688984	0.9533530355577088	-1.1504204834555312	-0.433196075225551	0.6326624252475846	-1.0320148061451992	-0.4888606361270252	0.2663153801489368	-1.1840865067812214	-0.5528145328513151	0.16030031789394775	-1.0416068872162203	-0.581056109373712	0.17854063589487157	-1.119176339164569	-0.4363541221704832	0.17640699247343775	-1.2456985674529126	-0.004739961335613901	0.8642828251996774	-1.1320779741076563	-0.06469720256224502	0.4851630167009586	-0.9861678585183911	-0.017965597672128363	0.1464259962175511	-1.1473901850784873	-0.03563574142870692	0.07931331219851297	-0.9895858075760474	0.014427996829591215	0.07316189624068582	-1.0307280652680118	-0.007155492779579032	0.09998361605634781	-1.1931424886149762	0.19898227097142165	1.3797209575573028	-1.1207712156719467	0.2928480622716148	1.5856135251673007	-0.9821291480234753	0.20972312069610025	1.439118666131726	-0.9314460996010957	0.022818436372641412	1.4221407923653466	-1.2236805517565668	-0.2225582907440861	1.403219791150928	-1.2387322648435475	-0.312618424643878	1.522189182196377	-1.0464136339886219	0.32024792504414	1.2269494129565333	-1.134175882312145	0.3411455078519029	0.9455378192760006	-1.1174768573797118	0.3202590387264547	0.6939149650039365	-1.0355193194898331
